<svg width="24" height="23" viewBox="0 0 24 23" fill="none" xmlns="http://www.w3.org/2000/svg">
<path fill-rule="evenodd" clip-rule="evenodd" d="M19.6983 0.535857L23.4328 0.120911L23.0179 3.85543C22.6342 7.30837 21.0868 10.5279 18.6302 12.9846L16.0566 15.5711C16.9729 16.4874 17.1151 17.9231 16.3963 19.0013L14.2351 22.2431C13.71 23.0307 12.5957 23.141 11.9263 22.4717L10.4286 20.974L10.8529 18.0041L5.54958 12.7008L2.57973 13.1251L1.08199 11.6274C0.412664 10.958 0.523009 9.84369 1.3106 9.31863L4.55241 7.15743C5.63061 6.43863 7.06628 6.58079 7.98257 7.49708L10.5692 4.92354C13.0258 2.46692 16.2453 0.919518 19.6983 0.535857ZM21.2289 3.65665L21.3953 2.15837L19.8971 2.32485C16.8503 2.66337 14.0096 4.02873 11.8419 6.19634L9.26841 8.76987C8.56186 9.47642 7.41632 9.47642 6.70978 8.76987C6.4002 8.46029 5.91515 8.41227 5.55087 8.65512L2.61354 10.6133L3.21612 11.2159L6.18597 10.7917L12.7621 17.3677L12.3378 20.3376L12.9404 20.9402L14.8986 18.0028C15.1415 17.6386 15.0934 17.1535 14.7838 16.8439C14.0773 16.1374 14.0773 14.9919 14.7838 14.2853L17.3574 11.7118C19.525 9.54416 20.8903 6.70337 21.2289 3.65665Z" fill="white"/>
<path d="M5.30434 14.8907L3.21826 20.371L8.69869 18.2845L5.30434 14.8907Z" fill="white"/>
</svg>
