<svg width="72" height="72" viewBox="0 0 72 72" fill="none" xmlns="http://www.w3.org/2000/svg">
<path d="M33.4219 26.5469C33.4219 25.123 34.5761 23.9688 36 23.9688C37.4239 23.9688 38.5781 25.123 38.5781 26.5469C38.5781 27.9707 37.4239 29.125 36 29.125C34.5761 29.125 33.4219 27.9707 33.4219 26.5469ZM33.4219 36C33.4219 34.5761 34.5761 33.4219 36 33.4219C37.4239 33.4219 38.5781 34.5761 38.5781 36C38.5781 37.4239 37.4239 38.5781 36 38.5781C34.5761 38.5781 33.4219 37.4239 33.4219 36ZM36 42.875C34.5761 42.875 33.4219 44.0293 33.4219 45.4531C33.4219 46.877 34.5761 48.0312 36 48.0312C37.4239 48.0312 38.5781 46.877 38.5781 45.4531C38.5781 44.0293 37.4239 42.875 36 42.875Z" fill="#21201F"/>
</svg>
