<svg xmlns="http://www.w3.org/2000/svg" width="634" height="276" fill="none"><g clip-path="url(#a)"><path fill="#E1C9ED" stroke="#000" stroke-linejoin="round" stroke-width="5.743" d="m36.4 96.783 546.077-80.295 22.185 149.965-546.076 80.295L36.401 96.783Z"/><path fill="#FDF3E8" stroke="#000" stroke-miterlimit="10" stroke-width="5.743" d="M284.385 38.945H24.805c-7.874 0-14.123 7.841-13.373 16.663L27.43 233.29c.624 7.281 5.998 12.742 12.497 12.742h259.581c7.873 0 14.122-7.841 13.372-16.662L296.883 51.687c-.75-7.421-5.999-12.742-12.498-12.742Z"/><path fill="#FED5BD" d="m121.991 168.684-13.514 3.743 3.128 5.364 8.509-.374 4.254-1.871-2.377-6.862Z"/><path fill="#FDF3E8" stroke="#000" stroke-miterlimit="10" stroke-width="5.743" d="M294.276 38.943H33.618c-7.906 0-14.18 7.655-13.428 16.424l16.064 174.395c.627 7.098 6.024 12.527 12.55 12.527H309.46c7.906 0 14.181-7.656 13.428-16.424L306.826 51.469c-.753-7.237-6.024-12.526-12.55-12.526Z"/><path fill="#FED42B" stroke="#000" stroke-linecap="round" stroke-linejoin="round" stroke-width="5.743" d="m33.266 58.491 16.267 175.812 262.154 3.754-16.893-179.566H33.266Z"/><path fill="#FDF3E8" stroke="#000" stroke-miterlimit="10" stroke-width="5.743" d="M409.043 222.951H50.036c-7.258 0-13.389 5.864-13.64 13.099-.25 7.236 5.381 13.099 12.64 13.099h359.006c7.257 0 13.389-5.863 13.639-13.099.25-7.235-5.381-13.099-12.638-13.099Z"/><path fill="#FDF3E8" stroke="#000" stroke-miterlimit="10" stroke-width="5.743" d="M409.04 222.951H203.196c-7.257 0-13.389 5.864-13.639 13.099-.25 7.236 5.381 13.099 12.638 13.099h205.969c7.258 0 13.389-5.863 13.64-13.099.125-7.235-5.506-13.099-12.764-13.099ZM60.173 236.051c.125-3.119-2.378-5.614-5.381-5.614-3.128 0-5.756 2.495-5.881 5.614-.125 3.119 2.377 5.614 5.38 5.614 3.129 0 5.757-2.495 5.882-5.614ZM87.45 236.051c.125-3.119-2.377-5.614-5.38-5.614-3.129 0-5.757 2.495-5.882 5.614-.125 3.119 2.378 5.614 5.38 5.614 3.13 0 5.757-2.495 5.882-5.614Z"/><path fill="#FDF3E8" stroke="#000" stroke-miterlimit="10" stroke-width="5.743" d="M344.103 222.951h-75.956c-2.628 0-4.88 2.121-5.005 4.865-.125 2.745 2.002 4.866 4.63 4.866h75.956c2.627 0 4.88-2.121 5.005-4.866.125-2.744-1.877-4.865-4.63-4.865ZM160.782 108.68c.251 1.996 2.002 3.494 4.13 3.494h110.492c2.628 0 4.63-2.246 4.38-4.616l-3.129-24.202c-.25-1.996-2.002-3.493-4.129-3.493H162.034c-2.628 0-4.63 2.245-4.38 4.616l3.128 24.201Z"/><path stroke="#000" stroke-linecap="round" stroke-linejoin="round" stroke-miterlimit="10" stroke-width="5.743" d="M174.672 90.915h42.67M175.426 100.072h21.898"/><path fill="#FDF3E8" d="m251.5 96.081 5.005 4.242 5.256-8.483"/><path stroke="#000" stroke-linecap="round" stroke-linejoin="round" stroke-width="5.743" d="m251.5 96.081 5.005 4.242 5.256-8.483"/><path fill="#FDF3E8" stroke="#000" stroke-miterlimit="10" stroke-width="5.743" d="M166.282 149.1c.251 1.996 2.002 3.493 4.13 3.493h110.492c2.628 0 4.63-2.246 4.38-4.616l-3.129-24.202c-.25-1.996-2.002-3.493-4.129-3.493H167.534c-2.628 0-4.63 2.245-4.38 4.616l3.128 24.202Z"/><path stroke="#000" stroke-linecap="round" stroke-linejoin="round" stroke-miterlimit="10" stroke-width="5.743" d="M183.053 131.335h42.67M183.797 140.492h21.898"/><path fill="#FDF3E8" d="m256.633 136.499 5.005 4.242 5.381-8.608"/><path stroke="#000" stroke-linecap="round" stroke-linejoin="round" stroke-width="5.743" d="m256.633 136.499 5.005 4.242 5.381-8.608"/><path fill="#FDF3E8" stroke="#000" stroke-miterlimit="10" stroke-width="5.743" d="M171.79 189.395c.25 1.996 2.002 3.493 4.129 3.493h110.493c2.628 0 4.63-2.245 4.38-4.616l-3.129-24.201c-.25-1.996-2.002-3.493-4.129-3.493H173.041c-2.627 0-4.629 2.245-4.379 4.615l3.128 24.202Z"/><path stroke="#000" stroke-linecap="round" stroke-linejoin="round" stroke-miterlimit="10" stroke-width="5.743" d="M187.305 171.754h42.67M188.059 180.785h21.898"/><path fill="#FDF3E8" d="m261.764 176.794 5.13 4.241 5.256-8.483"/><path stroke="#000" stroke-linecap="round" stroke-linejoin="round" stroke-width="5.743" d="m261.764 176.794 5.13 4.241 5.256-8.483"/><path fill="#37AF80" stroke="#000" stroke-linejoin="round" stroke-width="5.743" d="M141.256 120.781c-2.252-21.582-21.648-39.048-43.296-39.048S60.545 99.2 62.923 120.781c2.377 21.582 21.648 39.047 43.296 39.047s37.289-17.465 35.037-39.047Z"/><path fill="#BA9C80" stroke="#000" stroke-linejoin="round" stroke-width="5.096" d="m461.998 57.31 144.85 44.425 14.33-46.725-144.849-44.425-14.331 46.725ZM447.668 104.036l144.849 44.425 14.331-46.725-144.849-44.425-14.331 46.725ZM419.006 197.488l144.849 44.424 28.662-93.451-144.85-44.425-28.661 93.452Z"/><path fill="#FED42B" stroke="#000" stroke-linejoin="round" stroke-width="5.096" d="m473.908 214.326 35.044 10.748 28.662-93.451-35.045-10.748-28.661 93.451Z"/><path fill="#FED42B" stroke="#000" stroke-linejoin="round" stroke-width="5.096" d="m502.568 120.875 35.045 10.748 28.661-93.452-35.044-10.748-28.662 93.452Z"/><path fill="#29C489" stroke="#000" stroke-linecap="round" stroke-linejoin="round" stroke-width="5.096" d="m459.383 138.77 89.114-3.812 3.08 72.023-89.113 3.812z"/><path stroke="#000" stroke-linecap="round" stroke-linejoin="round" stroke-width="5.096" d="M495.166 179.063c6.446 5.694 15.291 5.316 21.227-.908"/><circle cx="489.197" cy="164.966" r="3.62" fill="#000" transform="rotate(-2.45 489.197 164.966)"/><circle cx="505.461" cy="170.852" r="3.62" fill="#000" transform="rotate(-2.45 505.461 170.852)"/><circle cx="521.457" cy="163.586" r="3.62" fill="#000" transform="rotate(-2.45 521.457 163.586)"/><path fill="#FED5BD" d="M345.613 110.568s25.402 11.727 26.653 12.475c1.252.749-9.635 104.168-9.635 104.168l-9.009 3.119-21.148-24.452-25.152-14.221-11.136-24.951 1.877-14.596 47.55-41.542Z"/><path fill="#FED5BD" d="M352.997 100.215c3.254-3.618 4.63-8.608 4.005-13.349-.501-3.867-1.377-8.608-2.253-12.225-3.754-14.222-2.127-29.692 4.505-42.79 1.752-3.618 4.004-7.111 7.758-8.733 2.253-.998 5.006-1.123 7.258.125 4.254 2.37 4.254 7.86 4.129 12.35-.625 14.846 0 30.065 4.88 44.038 3.254 9.606 8.51 18.588 11.763 28.193 0 .125.125.25.125.375 3.629 10.479 5.131 21.457 4.755 32.56-.25 7.61.25 17.59 3.754 24.202.501.998 1.502 1.871 2.378 2.744 15.848 15.579 37.423 35.898 61.039 55.016 0 0-43.187 11.228-79.054 49.485-13.443-17.051-27.477-36.745-35.793-46.74 0 0-7.132-7.361-14.765-9.731-7.633-2.37-15.642-4.741-23.025-7.111l-1.126-.25c-7.132-1.871-13.89-4.74-20.146-8.607-3.629-2.246-6.632-5.988-8.259-10.48-.375-.998-.751-1.996-1.001-2.994-2.503-7.235 6.507-25.699 8.509-27.819 3.128-3.369 7.633-5.115 12.263-4.741l34.912 3.119c2.127-.125 4.129 1.123 5.381 3.119 1.376 2.121 1.627 4.74.751 7.111-1.001 2.994-2.878 5.489-5.256 7.11-1.251.874-2.503 1.373-4.004 1.747-4.88 1.123-15.141 3.493-28.03 1.247"/><path stroke="#000" stroke-linecap="round" stroke-linejoin="round" stroke-miterlimit="10" stroke-width="5.743" d="M352.997 100.215c3.254-3.618 4.63-8.608 4.005-13.349-.501-3.867-1.377-8.608-2.253-12.225-3.754-14.222-2.127-29.692 4.505-42.79 1.752-3.618 4.004-7.111 7.758-8.733 2.253-.998 5.006-1.123 7.258.125 4.254 2.37 4.254 7.86 4.129 12.35-.625 14.846 0 30.065 4.88 44.038 3.254 9.606 8.51 18.588 11.763 28.193 0 .125.125.25.125.375 3.629 10.479 5.131 21.457 4.755 32.56-.25 7.61.25 17.59 3.754 24.202.501.998 1.502 1.871 2.378 2.744 15.848 15.579 37.423 35.898 61.039 55.016 0 0-43.187 11.228-79.054 49.485-13.443-17.051-27.477-36.745-35.793-46.74 0 0-7.132-7.361-14.765-9.731-7.633-2.37-15.642-4.741-23.025-7.111l-1.126-.25c-7.132-1.871-13.89-4.74-20.146-8.607-3.629-2.246-6.632-5.988-8.259-10.48-.375-.998-.751-1.996-1.001-2.994-2.503-7.235 6.507-25.699 8.509-27.819 3.128-3.369 7.633-5.115 12.263-4.741l34.912 3.119c2.127-.125 4.129 1.123 5.381 3.119 1.376 2.121 1.627 4.74.751 7.111-1.001 2.994-2.878 5.489-5.256 7.11-1.251.874-2.503 1.373-4.004 1.747-4.88 1.123-15.141 3.493-28.03 1.247"/><path fill="#FED5BD" d="m299.568 154.98-12.389-7.734c-4.88-2.994-8.634-7.86-10.886-13.848-.501-1.247-.876-2.62-1.377-3.867-2.627-7.61 2.378-28.942 8.635-39.422 2.002-3.368 5.881-5.24 9.76-4.865l54.933 5.49c2.753-.126 5.381 1.371 7.008 4.116 1.752 2.744 2.127 6.237 1.001 9.231-1.377 3.993-3.754 7.236-6.883 9.357a13.97 13.97 0 0 1-5.255 2.245c-6.382 1.497-26.904 5.988-40.793 2.246"/><path stroke="#000" stroke-linecap="round" stroke-linejoin="round" stroke-miterlimit="10" stroke-width="5.743" d="m299.568 154.98-12.389-7.734c-4.88-2.994-8.634-7.86-10.886-13.848-.501-1.247-.876-2.62-1.377-3.867-2.627-7.61 2.378-28.942 8.635-39.422 2.002-3.368 5.881-5.24 9.76-4.865l54.933 5.49c2.753-.126 5.381 1.371 7.008 4.116 1.752 2.744 2.127 6.237 1.001 9.231-1.377 3.993-3.754 7.236-6.883 9.357a13.97 13.97 0 0 1-5.255 2.245c-6.382 1.497-26.904 5.988-40.793 2.246"/><path fill="#FED5BD" d="m297.441 177.435-12.389-7.734c-4.88-2.994-8.634-7.86-10.886-13.848-.501-1.247-.876-2.62-1.377-3.867-2.627-7.61 2.378-28.942 8.635-39.422 2.002-3.368 5.881-5.239 9.76-4.865l54.933 5.489c2.753-.125 5.381 1.372 7.008 4.117 1.752 2.744 2.127 6.238 1.001 9.232-1.377 3.992-3.754 7.235-6.882 9.356a14 14 0 0 1-5.256 2.246c-6.382 1.497-26.904 5.988-40.793 2.245"/><path stroke="#000" stroke-linecap="round" stroke-linejoin="round" stroke-miterlimit="10" stroke-width="5.743" d="m297.441 177.435-12.389-7.734c-4.88-2.994-8.634-7.86-10.886-13.848-.501-1.247-.876-2.62-1.377-3.867-2.627-7.61 2.378-28.942 8.635-39.422 2.002-3.368 5.881-5.239 9.76-4.865l54.933 5.489c2.753-.125 5.381 1.372 7.008 4.117 1.752 2.744 2.127 6.238 1.001 9.232-1.377 3.992-3.754 7.235-6.882 9.356a14 14 0 0 1-5.256 2.246c-6.382 1.497-26.904 5.988-40.793 2.245"/><path fill="#FED5BD" d="m299.066 195.025-11.512-7.111c-4.505-2.744-8.009-7.36-10.136-12.849-.375-1.123-.876-2.37-1.251-3.618-2.378-7.111 2.252-26.822 8.008-36.552a9.376 9.376 0 0 1 9.01-4.491l50.929 5.114c2.502-.124 5.005 1.373 6.507 3.743 1.626 2.62 2.002 5.739 1.001 8.608-1.252 3.743-3.504 6.737-6.382 8.733-1.502.998-3.128 1.746-4.88 2.12-5.881 1.497-24.902 5.614-37.915 2.121"/><path stroke="#000" stroke-linecap="round" stroke-linejoin="round" stroke-miterlimit="10" stroke-width="5.743" d="m299.066 195.025-11.512-7.111c-4.505-2.744-8.009-7.36-10.136-12.849-.375-1.123-.876-2.37-1.251-3.618-2.378-7.111 2.252-26.822 8.008-36.552a9.376 9.376 0 0 1 9.01-4.491l50.929 5.114c2.502-.124 5.005 1.373 6.507 3.743 1.626 2.62 2.002 5.739 1.001 8.608-1.252 3.743-3.504 6.737-6.382 8.733-1.502.998-3.128 1.746-4.88 2.12-5.881 1.497-24.902 5.614-37.915 2.121"/><path fill="#FED5BD" d="M322.588 211.119a707.852 707.852 0 0 1-8.384-2.62l-1.126-.25c-7.132-1.871-13.89-4.74-20.146-8.608-3.629-2.245-6.632-5.988-8.259-10.479-.375-.998-.751-1.996-1.001-2.994-2.503-7.235 6.507-25.699 8.509-27.82 3.128-3.368 7.633-5.114 12.263-4.74l34.912 3.119c2.127-.125 4.13 1.122 5.381 3.118 1.376 2.121 1.627 4.741.751 7.111-1.001 2.994-2.878 5.489-5.256 7.111-1.251.873-2.503 1.372-4.004 1.747-4.88 1.123-15.141 3.493-28.03 1.247"/><path stroke="#000" stroke-linecap="round" stroke-linejoin="round" stroke-miterlimit="10" stroke-width="5.743" d="M322.588 211.119a707.852 707.852 0 0 1-8.384-2.62l-1.126-.25c-7.132-1.871-13.89-4.74-20.146-8.608-3.629-2.245-6.632-5.988-8.259-10.479-.375-.998-.751-1.996-1.001-2.994-2.503-7.235 6.507-25.699 8.509-27.82 3.128-3.368 7.633-5.114 12.263-4.74l34.912 3.119c2.127-.125 4.13 1.122 5.381 3.118 1.376 2.121 1.627 4.741.751 7.111-1.001 2.994-2.878 5.489-5.256 7.111-1.251.873-2.503 1.372-4.004 1.747-4.88 1.123-15.141 3.493-28.03 1.247"/></g><defs><clipPath id="a"><path fill="#fff" d="M0 0h634v275.652H0z"/></clipPath></defs></svg>